<?xml version="1.0" encoding="utf-8"?>
<svg version="1.0" width="200.000000pt" height="200.000000pt" viewBox="0 0 200.000000 200.000000" preserveAspectRatio="xMidYMid meet" xmlns="http://www.w3.org/2000/svg">
  <defs/>
  <path d="M 112.396 48.165 C 78.19 55.62 46.639 78.827 30.035 109.299 C 25.601 117.412 17.389 133.699 18.242 158.829 L 18.526 167.226 L 23.053 168.923 C 29.091 171.187 49.093 174.867 66.64 176.848 C 77.112 178.074 88.245 178.648 109.093 178.546 C 130.81 178.441 145.038 177.981 163.34 172.791 C 178.529 168.452 189.472 159.3 188.246 151.659 C 186.831 143.168 179.284 94.865 178.151 87.506 C 175.039 66.94 163.245 53.543 143.812 48.544 C 137.395 46.845 125.437 45.323 112.396 48.165 Z" style="paint-order: stroke; stroke: rgb(0, 0, 0); fill: rgb(231, 231, 231); stroke-width: 0px;"/>
  <path d="M 114.574 46.679 C 105.485 48.66 99.86 50.572 87.091 56.514 C 106.288 53.152 120.57 54.934 129.216 61.34 C 139.805 69.186 142.32 83.249 139.747 94.436 C 135.652 112.241 132.013 125.18 134.63 145.329 C 136.579 160.337 138.157 165.248 147.721 177.181 C 153.123 176.346 160.414 174.93 166.272 173.269 C 181.461 168.93 191.817 160.346 190.591 152.705 C 189.176 144.214 182.461 94.912 181.328 87.553 C 178.216 66.987 165.863 52.639 146.43 47.64 C 140.013 45.941 127.615 43.837 114.574 46.679 Z" style="paint-order: stroke; fill: rgb(84, 141, 158); stroke-width: 3px;"/>
  <path d="M 46.978 90.954 C 45.692 92.214 46.145 97.899 46.021 101.602 C 45.921 104.589 45.402 110.564 45.657 111.898 C 45.949 113.147 47.525 113.963 47.547 113.878 C 48.788 114.643 50.6 115.2 58.8 113.7 L 67.5 112.1 L 76.5 118.1 C 89.3 126.4 89.3 126.4 99 112.9 C 106.5 102.5 107.6 98.8 103.3 98.2 C 101.6 97.9 99.8 99.8 94.5 107.2 C 90.8 112.3 87.4 116.4 86.8 116.2 C 86.3 116.1 82.6 113.8 78.7 111.1 C 74.7 108.5 70.6 106 69.6 105.6 C 67.9 105 63.4 105.6 54.1 107.6 C 51.8 108.1 51.8 108.1 52.5 101.1 C 53.3 92.6 51.79 90.198 49.99 90 C 48.698 89.858 48.057 90.045 46.978 90.954 Z" fill="#3e3e40" stroke="none"/>
  <path d="M 170.4 114.8 C 164.9 111.6 155.005 110.964 148.569 119.179 C 141.447 128.27 143.148 137.943 146.885 142.133 C 155.185 150.833 169.4 148 175 137 C 179 129.2 176.7 118.5 170.4 114.8 Z" fill="#301130" stroke="none"/>
  <path d="M 113.826 45.947 C 78.46 53.655 45.838 77.649 28.671 109.154 C 24.086 117.543 15.596 134.383 16.478 160.367 L 16.77 169.047 L 21.452 170.802 C 27.695 173.144 48.375 176.947 66.518 178.996 C 77.344 180.263 88.855 180.857 110.41 180.752 C 132.866 180.642 147.575 180.168 166.498 174.801 C 182.202 170.315 193.517 160.853 192.249 152.952 C 190.787 144.173 182.983 94.232 181.812 86.623 C 178.594 65.359 166.4 51.508 146.307 46.339 C 139.674 44.582 127.309 43.009 113.826 45.947 Z" style="paint-order: stroke; fill: none; stroke-width: 4px; stroke: rgb(0, 0, 0);"/>
</svg>
